<?xml version="1.0" encoding="UTF-8" standalone="no"?>
<svg width="170" height="205" viewBox="0 0 34 41" version="1.1" xmlns="http://www.w3.org/2000/svg" xmlns:svg="http://www.w3.org/2000/svg">
    <g id="duck">
        <path
                id="outline"
                style="fill:#000000"
                d="m 16,1 v 1 h 3 V 1 Z m 3,1 v 2 h 1 V 2 Z m 1,2 v 1 h 1 V 4 Z m 0,1 h -1 v 2 h -4 v 1 h 1 v 1 h 1 V 8 h 1 v 1 h 1 V 8 h 1 z M 15,7 V 6 h 2 V 5 H 16 V 2 h -1 v 3 h -1 v 1 1 z m 2,-4 v 1 h 1 V 3 Z" />
        <rect
                id="beak_dark"
                style="fill:#cd6512"
                width="1"
                height="1"
                x="18"
                y="4" />
        <rect
                id="beak_light"
                style="fill:#e17333"
                width="1"
                height="1"
                x="19"
                y="4" />
        <rect
                id="body_dark"
                style="fill:#dca825"
                width="4"
                height="1"
                x="15"
                y="6" />
        <path
                id="body_light"
                style="fill:#f5d033"
                d="m 16,2 v 1 2 h 1 v 1 h 1 1 V 5 H 18 V 4 H 17 V 3 h 1 v 1 h 1 V 3 2 Z" />
    </g>
    <g id="ghost">
        <path
                id="outline"
                style="fill:#000000"
                d="m 13,9 v 1 h 8 V 9 Z m 8,1 v 1 h 2 v -1 z m 2,1 v 1 h 1 v -1 z m 1,1 v 1 h 1 v -1 z m 1,1 v 2 h 1 v -2 z m 1,2 v 13 h 1 V 15 Z m 0,13 h -1 v 3 h 1 z m -1,3 h -1 v 2 h 1 z m -1,2 h -1 v 2 h 1 z m -1,2 h -1 v 1 h 1 z m -1,1 h -1 v 1 h 1 z m -1,1 h -1 v 1 h 1 z m -1,1 h -2 v 1 h 2 z m -2,1 h -4 v 1 h 4 z m -4,0 v -1 h -2 v 1 z m -2,0 H 8 v 1 h 4 z M 8,39 V 38 H 7 v 1 z M 7,38 V 36 H 6 v 2 z M 7,36 H 8 V 35 H 7 Z M 7,35 V 34 H 3 v 1 z M 3,34 V 33 H 2 v 1 z M 2,33 V 31 H 1 v 2 z M 2,31 H 4 V 30 H 2 Z M 4,30 H 5 V 29 H 4 Z M 5,29 H 6 V 28 H 5 Z M 6,28 H 7 V 25 H 6 Z M 7,25 H 8 V 15 H 7 Z M 8,15 H 9 V 13 H 8 Z m 1,-2 h 1 V 12 H 9 Z m 1,-1 h 1 v -1 h -1 z m 1,-1 h 2 v -1 h -2 z m 5,4 v 4 h 2 v -4 z m 5,0 v 4 h 2 v -4 z m -2,6 v 1 h 2 v -1 z m -9,4 v 2 h 1 v -2 z m 0,2 H 9 v 3 h 1 z m 0,3 v 1 h 3 v -1 z m 3,0 h 1 v -2 h -1 z" />
        <path
                id="dark"
                style="fill:#cccccc"
                d="m 13,10 v 1 h 1 v -1 z m 0,1 h -2 v 1 h 2 z m -2,1 h -1 v 1 h 1 z m -1,1 H 9 v 2 h 1 z M 9,15 H 8 V 25 H 9 Z M 8,25 H 7 v 3 H 8 Z M 7,28 H 6 v 1 H 7 Z M 6,29 H 5 v 1 H 6 Z M 5,30 H 4 v 1 H 5 Z M 4,31 H 2 v 1 h 2 z m 3,3 v 1 h 1 v 1 h 1 v -1 h 1 v -1 z m 1,2 H 7 v 1 h 1 z m 7,0 v 1 h 1 v -1 z m 0,1 h -2 v 1 h 2 z" />
        <path
                id="light"
                style="fill:#f8f8ff"
                d="m 14,10 v 1 h -1 v 1 h -2 v 1 h -1 v 2 H 9 V 25 H 8 v 3 H 7 v 1 H 6 v 1 H 5 v 1 H 4 v 1 H 3 2 v 1 h 1 v 1 h 7 v 1 H 9 v 1 H 8 v 1 H 7 v 1 h 1 v 1 h 2 2 v -1 h 1 v -1 h 1 1 v -1 h 1 v 1 h -1 v 1 h -1 v 1 h 1 1 2 v -1 h 2 v -1 h 1 v -1 h 1 v -1 h 1 v -2 h 1 v -2 h 1 v -3 h 1 V 15 h -1 v -2 h -1 v -1 h -1 v -1 h -2 v -1 z m 2,5 h 2 v 4 h -2 z m 5,0 h 2 v 4 h -2 z m -2,6 h 2 v 1 h -2 z m -9,4 h 1 v 2 h -1 v 1 2 h 3 v -2 h 1 v 2 h -1 v 1 H 10 V 30 H 9 v -3 h 1 z" />
    </g>
    <g id="coffee">
        <path
                id="dark"
                style="fill:#cfcfcf"
                d="m 28,26 v 5 h 1 v -5 z m -2,2 v 2 h 1 v -2 z" />
        <path
                id="outline"
                style="fill:#000000"
                d="m 27,25 v 5 h -1 v 1 h 2 v -1 -4 h 4 v 5 h 1 v -6 h -1 -4 z m 5,6 h -4 v 1 h 4 z" />
        <rect
                id="light"
                style="fill:#f8f8ff"
                width="3"
                height="5"
                x="29"
                y="26" />
        <path
                id="steam"
                style="fill:#8b8b8b"
                d="m 29,19 v 2 h 1 v -2 z m 1,2 v 2 h 1 v -2 z m 0,2 h -1 v 1 h 1 z" />
    </g>
</svg>
