<?xml version="1.0" encoding="UTF-8" standalone="no"?>
<svg width="140" height="165" viewBox="0 0 28 33" version="1.1" xmlns="http://www.w3.org/2000/svg" xmlns:svg="http://www.w3.org/2000/svg">
    <path
            id="outline"
            style="fill:#000000"
            d="M 13 1 L 13 2 L 21 2 L 21 1 L 13 1 z M 21 2 L 21 3 L 23 3 L 23 2 L 21 2 z M 23 3 L 23 4 L 24 4 L 24 3 L 23 3 z M 24 4 L 24 5 L 25 5 L 25 4 L 24 4 z M 25 5 L 25 7 L 26 7 L 26 5 L 25 5 z M 26 7 L 26 20 L 27 20 L 27 7 L 26 7 z M 26 20 L 25 20 L 25 23 L 26 23 L 26 20 z M 25 23 L 24 23 L 24 25 L 25 25 L 25 23 z M 24 25 L 23 25 L 23 27 L 24 27 L 24 25 z M 23 27 L 22 27 L 22 28 L 23 28 L 23 27 z M 22 28 L 21 28 L 21 29 L 22 29 L 22 28 z M 21 29 L 20 29 L 20 30 L 21 30 L 21 29 z M 20 30 L 18 30 L 18 31 L 20 31 L 20 30 z M 18 31 L 14 31 L 14 32 L 18 32 L 18 31 z M 14 31 L 14 30 L 12 30 L 12 31 L 14 31 z M 12 31 L 8 31 L 8 32 L 12 32 L 12 31 z M 8 31 L 8 30 L 7 30 L 7 31 L 8 31 z M 7 30 L 7 28 L 6 28 L 6 30 L 7 30 z M 7 28 L 8 28 L 8 27 L 7 27 L 7 28 z M 7 27 L 7 26 L 3 26 L 3 27 L 7 27 z M 3 26 L 3 25 L 2 25 L 2 26 L 3 26 z M 2 25 L 2 23 L 1 23 L 1 25 L 2 25 z M 2 23 L 4 23 L 4 22 L 2 22 L 2 23 z M 4 22 L 5 22 L 5 21 L 4 21 L 4 22 z M 5 21 L 6 21 L 6 20 L 5 20 L 5 21 z M 6 20 L 7 20 L 7 17 L 6 17 L 6 20 z M 7 17 L 8 17 L 8 7 L 7 7 L 7 17 z M 8 7 L 9 7 L 9 5 L 8 5 L 8 7 z M 9 5 L 10 5 L 10 4 L 9 4 L 9 5 z M 10 4 L 11 4 L 11 3 L 10 3 L 10 4 z M 11 3 L 13 3 L 13 2 L 11 2 L 11 3 z M 16 7 L 16 11 L 18 11 L 18 7 L 16 7 z M 21 7 L 21 11 L 23 11 L 23 7 L 21 7 z M 19 13 L 19 14 L 21 14 L 21 13 L 19 13 z M 10 17 L 10 19 L 11 19 L 11 17 L 10 17 z M 10 19 L 9 19 L 9 22 L 10 22 L 10 19 z M 10 22 L 10 23 L 13 23 L 13 22 L 10 22 z M 13 22 L 14 22 L 14 20 L 13 20 L 13 22 z " />
    <path
            id="shadow"
            style="fill:#cccccc"
            d="M 13 2 L 13 3 L 14 3 L 14 2 L 13 2 z M 13 3 L 11 3 L 11 4 L 13 4 L 13 3 z M 11 4 L 10 4 L 10 5 L 11 5 L 11 4 z M 10 5 L 9 5 L 9 7 L 10 7 L 10 5 z M 9 7 L 8 7 L 8 17 L 9 17 L 9 7 z M 8 17 L 7 17 L 7 20 L 8 20 L 8 17 z M 7 20 L 6 20 L 6 21 L 7 21 L 7 20 z M 6 21 L 5 21 L 5 22 L 6 22 L 6 21 z M 5 22 L 4 22 L 4 23 L 5 23 L 5 22 z M 4 23 L 2 23 L 2 24 L 4 24 L 4 23 z M 7 26 L 7 27 L 8 27 L 8 28 L 9 28 L 9 27 L 10 27 L 10 26 L 7 26 z M 8 28 L 7 28 L 7 29 L 8 29 L 8 28 z M 15 28 L 15 29 L 16 29 L 16 28 L 15 28 z M 15 29 L 13 29 L 13 30 L 15 30 L 15 29 z " />
    <path
            id="body"
            style="fill:#ffffff"
            d="M 14 2 L 14 3 L 13 3 L 13 4 L 11 4 L 11 5 L 10 5 L 10 7 L 9 7 L 9 17 L 8 17 L 8 19 L 8 20 L 7 20 L 7 21 L 6 21 L 6 22 L 5 22 L 5 23 L 4 23 L 4 24 L 2 24 L 2 25 L 3 25 L 3 26 L 4 26 L 5 26 L 10 26 L 10 27 L 9 27 L 9 28 L 8 28 L 8 29 L 7 29 L 7 30 L 8 30 L 8 31 L 12 31 L 12 30 L 13 30 L 13 29 L 15 29 L 15 28 L 16 28 L 16 29 L 15 29 L 15 30 L 14 30 L 14 31 L 18 31 L 18 30 L 20 30 L 20 29 L 21 29 L 21 28 L 22 28 L 22 27 L 23 27 L 23 25 L 24 25 L 24 23 L 25 23 L 25 20 L 26 20 L 26 7 L 25 7 L 25 5 L 24 5 L 24 4 L 23 4 L 23 3 L 21 3 L 21 2 L 14 2 z M 16 7 L 18 7 L 18 11 L 16 11 L 16 7 z M 21 7 L 23 7 L 23 11 L 21 11 L 21 7 z M 19 13 L 21 13 L 21 14 L 19 14 L 19 13 z M 10 17 L 11 17 L 11 19 L 10 19 L 10 20 L 10 22 L 13 22 L 13 20 L 14 20 L 14 22 L 13 22 L 13 23 L 10 23 L 10 22 L 9 22 L 9 20 L 9 19 L 10 19 L 10 17 z " />
</svg>
