<?xml version="1.0" encoding="UTF-8" standalone="no"?>
<svg width="90" height="100" viewBox="0 0 18 20" version="1.1" xmlns="http://www.w3.org/2000/svg" xmlns:svg="http://www.w3.org/2000/svg">
    <path
            id="outline"
            style="fill:#000000"
            d="M 8 1 L 8 2 L 10 2 L 10 1 L 8 1 z M 10 2 L 10 3 L 8 3 L 8 2 L 7 2 L 7 4 L 8 4 L 9 4 L 9 7 L 10 7 L 10 4 L 11 4 L 11 3 L 14 3 L 14 2 L 11 2 L 10 2 z M 14 3 L 14 4 L 15 4 L 15 3 L 14 3 z M 15 4 L 15 7 L 16 7 L 16 4 L 15 4 z M 15 7 L 14 7 L 14 8 L 11 8 L 11 9 L 14 9 L 14 13 L 15 13 L 15 7 z M 15 13 L 15 14 L 16 14 L 16 13 L 15 13 z M 16 14 L 16 15 L 17 15 L 17 14 L 16 14 z M 16 15 L 2 15 L 2 16 L 6 16 L 6 17 L 7 17 L 7 16 L 11 16 L 11 17 L 12 17 L 12 16 L 16 16 L 16 15 z M 11 17 L 10 17 L 10 18 L 11 18 L 11 17 z M 10 18 L 8 18 L 8 19 L 10 19 L 10 18 z M 8 18 L 8 17 L 7 17 L 7 18 L 8 18 z M 2 15 L 2 14 L 1 14 L 1 15 L 2 15 z M 2 14 L 3 14 L 3 13 L 2 13 L 2 14 z M 3 13 L 4 13 L 4 7 L 3 7 L 3 13 z M 4 7 L 5 7 L 5 6 L 4 6 L 4 7 z M 5 6 L 6 6 L 6 5 L 5 5 L 5 6 z M 6 5 L 7 5 L 7 4 L 6 4 L 6 5 z M 11 8 L 11 7 L 10 7 L 10 8 L 11 8 z " />
    <path
            id="shadow"
            style="fill:#cccccc"
            d="M 13 9 L 13 13 L 14 13 L 14 9 L 13 9 z M 14 13 L 14 14 L 2 14 L 2 15 L 16 15 L 16 14 L 15 14 L 15 13 L 14 13 z M 7 16 L 7 17 L 11 17 L 11 16 L 7 16 z " />
    <path
            id="alert_body"
            style="fill:#f67b7b"
            d="M 11 3 L 11 4 L 10 4 L 10 6 L 11 6 L 11 7 L 12 7 L 12 8 L 13 8 L 13 7 L 14 7 L 14 6 L 15 6 L 15 4 L 14 4 L 14 3 L 11 3 z " />
    <path
            id="alert_shadow"
            style="fill:#8b0000"
            d="M 10 6 L 10 7 L 11 7 L 11 6 L 10 6 z M 11 7 L 11 8 L 12 8 L 12 7 L 11 7 z M 14 6 L 14 7 L 15 7 L 15 6 L 14 6 z M 14 7 L 13 7 L 13 8 L 14 8 L 14 7 z " />
    <path
            id="body"
            style="fill:#ffffff"
            d="M 8 2 L 8 3 L 10 3 L 10 2 L 8 2 z M 7 4 L 7 5 L 6 5 L 6 6 L 5 6 L 5 7 L 4 7 L 4 13 L 3 13 L 3 14 L 4 14 L 10 14 L 13 14 L 14 14 L 14 13 L 13 13 L 13 9 L 11 9 L 11 8 L 10 8 L 10 7 L 9 7 L 9 5 L 9 4 L 7 4 z M 8 17 L 8 18 L 10 18 L 10 17 L 8 17 z " />
</svg>