<?xml version="1.0" encoding="UTF-8" standalone="no"?>
<svg width="85" height="115" viewBox="0 0 17 23" version="1.1" xmlns="http://www.w3.org/2000/svg" xmlns:svg="http://www.w3.org/2000/svg">
    <path
            id="outline"
            style="fill:#000000"
            d="M 6 1 L 6 2 L 11 2 L 11 1 L 6 1 z M 11 2 L 11 3 L 13 3 L 13 2 L 11 2 z M 13 3 L 13 4 L 14 4 L 14 3 L 13 3 z M 14 4 L 14 6 L 15 6 L 15 4 L 14 4 z M 15 6 L 15 11 L 16 11 L 16 6 L 15 6 z M 15 11 L 14 11 L 14 13 L 15 13 L 15 11 z M 14 13 L 13 13 L 13 14 L 14 14 L 14 13 z M 13 14 L 12 14 L 12 16 L 13 16 L 13 14 z M 12 16 L 11 16 L 11 18 L 12 18 L 12 16 z M 11 18 L 10 18 L 10 19 L 11 19 L 11 18 z M 10 19 L 9 19 L 9 21 L 10 21 L 10 19 z M 9 21 L 8 21 L 8 22 L 9 22 L 9 21 z M 8 21 L 8 19 L 7 19 L 7 21 L 8 21 z M 7 19 L 7 18 L 6 18 L 6 19 L 7 19 z M 6 18 L 6 16 L 5 16 L 5 18 L 6 18 z M 5 16 L 5 14 L 4 14 L 4 16 L 5 16 z M 4 14 L 4 13 L 3 13 L 3 14 L 4 14 z M 3 13 L 3 11 L 2 11 L 2 13 L 3 13 z M 2 11 L 2 6 L 1 6 L 1 11 L 2 11 z M 2 6 L 3 6 L 3 4 L 2 4 L 2 6 z M 3 4 L 4 4 L 4 3 L 3 3 L 3 4 z M 4 3 L 6 3 L 6 2 L 4 2 L 4 3 z M 6 4 L 6 5 L 11 5 L 11 4 L 6 4 z M 11 5 L 11 6 L 12 6 L 12 5 L 11 5 z M 12 6 L 12 11 L 13 11 L 13 6 L 12 6 z M 12 11 L 11 11 L 11 12 L 12 12 L 12 11 z M 11 12 L 6 12 L 6 13 L 11 13 L 11 12 z M 6 12 L 6 11 L 5 11 L 5 12 L 6 12 z M 5 11 L 5 6 L 4 6 L 4 11 L 5 11 z M 5 6 L 6 6 L 6 5 L 5 5 L 5 6 z " />
    <path
            id="shadow"
            style="fill:#cccccc"
            d="M 5 4 L 5 5 L 6 5 L 6 4 L 5 4 z M 5 5 L 4 5 L 4 6 L 5 6 L 5 5 z M 14 6 L 14 11 L 15 11 L 15 6 L 14 6 z M 14 11 L 13 11 L 13 13 L 14 13 L 14 11 z M 13 13 L 12 13 L 12 14 L 13 14 L 13 13 z M 12 14 L 11 14 L 11 16 L 12 16 L 12 14 z M 11 16 L 10 16 L 10 18 L 11 18 L 11 16 z M 10 18 L 9 18 L 9 19 L 10 19 L 10 18 z M 9 19 L 8 19 L 8 21 L 9 21 L 9 19 z " />
    <path
            id="light"
            style="fill:#ffffff"
            d="M 6 2 L 6 3 L 4 3 L 4 4 L 3 4 L 3 5 L 3 6 L 2 6 L 2 11 L 3 11 L 3 13 L 4 13 L 4 14 L 5 14 L 5 16 L 6 16 L 6 18 L 7 18 L 7 19 L 9 19 L 9 18 L 10 18 L 10 16 L 11 16 L 11 14 L 12 14 L 12 13 L 13 13 L 13 12 L 13 11 L 12 11 L 12 12 L 11 12 L 11 13 L 6 13 L 6 12 L 5 12 L 5 11 L 4 11 L 4 6 L 4 5 L 5 5 L 5 4 L 6 4 L 11 4 L 11 5 L 12 5 L 12 6 L 13 6 L 13 11 L 14 11 L 14 4 L 13 4 L 13 3 L 11 3 L 11 2 L 6 2 z " />
    <path
            id="inner"
            style="fill:#000000"
            d="M 6 5 L 6 6 L 5 6 L 5 11 L 6 11 L 6 12 L 11 12 L 11 11 L 12 11 L 12 6 L 11 6 L 11 5 L 6 5 z " />
</svg>