<?xml version="1.0" encoding="UTF-8" standalone="no"?>
<svg width="110" height="175" viewBox="0 0 110 175" version="1.1" xmlns="http://www.w3.org/2000/svg" xmlns:svg="http://www.w3.org/2000/svg">
    <g id="skull">
        <path
                id="light"
                style="fill:#f8f8ff"
                d="M 35 5 L 35 10 L 20 10 L 20 15 L 15 15 L 15 20 L 10 20 L 10 25 L 10 30 L 5 30 L 5 65 L 10 65 L 10 75 L 15 75 L 15 85 L 10 85 L 10 95 L 15 95 L 35 95 L 35 100 L 35 115 L 40 115 L 40 100 L 50 100 L 50 115 L 55 115 L 55 100 L 65 100 L 65 115 L 70 115 L 70 100 L 75 100 L 75 95 L 95 95 L 95 90 L 95 85 L 90 85 L 90 75 L 95 75 L 95 70 L 95 30 L 90 30 L 90 20 L 85 20 L 85 15 L 80 15 L 80 10 L 75 10 L 75 5 L 35 5 z M 25 40 L 35 40 L 40 40 L 40 45 L 45 45 L 45 65 L 40 65 L 40 70 L 25 70 L 25 65 L 20 65 L 20 45 L 25 45 L 25 40 z M 70 40 L 80 40 L 85 40 L 85 45 L 90 45 L 90 65 L 85 65 L 85 70 L 70 70 L 70 65 L 65 65 L 65 45 L 70 45 L 70 40 z M 50 75 L 60 75 L 60 85 L 50 85 L 50 75 z " />
        <path
                id="dark"
                style="fill:#cccccc"
                d="M 80 10 L 80 15 L 85 15 L 85 20 L 90 20 L 90 25 L 90 30 L 95 30 L 95 35 L 95 60 L 95 70 L 95 75 L 100 75 L 100 65 L 105 65 L 105 30 L 100 30 L 100 25 L 100 20 L 95 20 L 95 15 L 90 15 L 90 10 L 80 10 z M 95 75 L 90 75 L 90 85 L 95 85 L 95 75 z M 95 85 L 95 95 L 100 95 L 100 85 L 95 85 z M 95 95 L 75 95 L 75 100 L 95 100 L 95 95 z M 75 100 L 70 100 L 70 115 L 75 115 L 75 100 z M 15 95 L 15 100 L 35 100 L 35 95 L 15 95 z M 40 100 L 40 115 L 45 115 L 45 100 L 40 100 z M 55 100 L 55 115 L 60 115 L 60 100 L 55 100 z " />
        <path
                id="holes"
                style="fill:#000000"
                d="M 25 40 L 25 45 L 20 45 L 20 65 L 25 65 L 25 70 L 40 70 L 40 65 L 45 65 L 45 45 L 40 45 L 40 40 L 25 40 z M 70 40 L 70 45 L 65 45 L 65 65 L 70 65 L 70 70 L 85 70 L 85 65 L 90 65 L 90 45 L 85 45 L 85 40 L 70 40 z M 50 75 L 50 85 L 60 85 L 60 75 L 50 75 z " />
    </g>
    <g id="bones">
        <path
                id="light"
                style="fill:#f8f8ff"
                d="M 10 105 L 10 110 L 5 110 L 5 115 L 5 120 L 10 120 L 10 125 L 30 125 L 30 130 L 40 130 L 40 140 L 30 140 L 30 145 L 20 145 L 20 150 L 10 150 L 10 155 L 5 155 L 5 160 L 5 165 L 10 165 L 10 170 L 20 170 L 20 165 L 25 165 L 25 160 L 25 155 L 25 150 L 40 150 L 40 145 L 50 145 L 50 140 L 60 140 L 60 145 L 70 145 L 70 150 L 80 150 L 80 155 L 80 160 L 85 160 L 85 165 L 85 170 L 90 170 L 90 165 L 95 165 L 95 160 L 100 160 L 100 155 L 95 155 L 95 150 L 85 150 L 85 145 L 80 145 L 80 140 L 70 140 L 70 130 L 75 130 L 75 125 L 95 125 L 95 120 L 100 120 L 100 115 L 95 115 L 95 110 L 90 110 L 90 105 L 85 105 L 85 110 L 85 115 L 80 115 L 80 120 L 70 120 L 70 125 L 60 125 L 60 130 L 50 130 L 50 125 L 35 125 L 35 120 L 30 120 L 30 115 L 20 115 L 20 110 L 20 105 L 10 105 z " />
        <path
                id="dark"
                style="fill:#cccccc"
                d="M 20 105 L 20 115 L 25 115 L 25 105 L 20 105 z M 90 105 L 90 110 L 95 110 L 95 115 L 100 115 L 100 120 L 105 120 L 105 110 L 100 110 L 100 105 L 90 105 z M 100 120 L 95 120 L 95 125 L 100 125 L 100 120 z M 35 120 L 35 125 L 40 125 L 40 120 L 35 120 z M 75 125 L 75 130 L 80 130 L 80 125 L 75 125 z M 85 145 L 85 150 L 90 150 L 90 145 L 85 145 z M 25 150 L 25 160 L 30 160 L 30 150 L 25 150 z M 95 150 L 95 155 L 100 155 L 100 150 L 95 150 z M 100 155 L 100 160 L 95 160 L 95 165 L 90 165 L 90 170 L 100 170 L 100 165 L 105 165 L 105 160 L 105 155 L 100 155 z M 20 165 L 20 170 L 25 170 L 25 165 L 20 165 z " />
    </g>
</svg>
